<svg xmlns="http://www.w3.org/2000/svg" viewBox="0 0 1400 900" width="1400" height="900" font-family="'Segoe UI', Arial, sans-serif">
  <defs>
    <!-- Arrow markers -->
    <marker id="arrow-white" markerWidth="10" markerHeight="7" refX="9" refY="3.5" orient="auto">
      <polygon points="0 0, 10 3.5, 0 7" fill="#cccccc"/>
    </marker>
    <marker id="arrow-green" markerWidth="10" markerHeight="7" refX="9" refY="3.5" orient="auto">
      <polygon points="0 0, 10 3.5, 0 7" fill="#4ade80"/>
    </marker>
    <marker id="arrow-orange" markerWidth="10" markerHeight="7" refX="9" refY="3.5" orient="auto">
      <polygon points="0 0, 10 3.5, 0 7" fill="#fb923c"/>
    </marker>
    <marker id="arrow-blue" markerWidth="10" markerHeight="7" refX="9" refY="3.5" orient="auto">
      <polygon points="0 0, 10 3.5, 0 7" fill="#60a5fa"/>
    </marker>
    <marker id="arrow-yellow" markerWidth="10" markerHeight="7" refX="9" refY="3.5" orient="auto">
      <polygon points="0 0, 10 3.5, 0 7" fill="#facc15"/>
    </marker>
    <!-- Glow filters -->
    <filter id="glow-green" x="-20%" y="-20%" width="140%" height="140%">
      <feGaussianBlur stdDeviation="3" result="coloredBlur"/>
      <feMerge><feMergeNode in="coloredBlur"/><feMergeNode in="SourceGraphic"/></feMerge>
    </filter>
    <filter id="glow-blue" x="-20%" y="-20%" width="140%" height="140%">
      <feGaussianBlur stdDeviation="2" result="coloredBlur"/>
      <feMerge><feMergeNode in="coloredBlur"/><feMergeNode in="SourceGraphic"/></feMerge>
    </filter>
    <filter id="drop-shadow" x="-10%" y="-10%" width="120%" height="120%">
      <feDropShadow dx="0" dy="4" stdDeviation="6" flood-color="#000000" flood-opacity="0.5"/>
    </filter>
    <!-- Background gradient -->
    <linearGradient id="bg-grad" x1="0%" y1="0%" x2="100%" y2="100%">
      <stop offset="0%" style="stop-color:#0f172a"/>
      <stop offset="100%" style="stop-color:#1e293b"/>
    </linearGradient>
    <!-- Service card gradients -->
    <linearGradient id="java-grad" x1="0%" y1="0%" x2="0%" y2="100%">
      <stop offset="0%" style="stop-color:#1e3a5f"/>
      <stop offset="100%" style="stop-color:#0f2a45"/>
    </linearGradient>
    <linearGradient id="python-grad" x1="0%" y1="0%" x2="0%" y2="100%">
      <stop offset="0%" style="stop-color:#1a3d2e"/>
      <stop offset="100%" style="stop-color:#0d2a1e"/>
    </linearGradient>
    <linearGradient id="node-grad" x1="0%" y1="0%" x2="0%" y2="100%">
      <stop offset="0%" style="stop-color:#2d3a1e"/>
      <stop offset="100%" style="stop-color:#1e2a0d"/>
    </linearGradient>
    <linearGradient id="gateway-grad" x1="0%" y1="0%" x2="0%" y2="100%">
      <stop offset="0%" style="stop-color:#3d2200"/>
      <stop offset="100%" style="stop-color:#2a1600"/>
    </linearGradient>
    <linearGradient id="kafka-grad" x1="0%" y1="0%" x2="0%" y2="100%">
      <stop offset="0%" style="stop-color:#2d1a3d"/>
      <stop offset="100%" style="stop-color:#1e0d2a"/>
    </linearGradient>
    <linearGradient id="db-pg-grad" x1="0%" y1="0%" x2="0%" y2="100%">
      <stop offset="0%" style="stop-color:#1a2a4a"/>
      <stop offset="100%" style="stop-color:#0d1a35"/>
    </linearGradient>
    <linearGradient id="db-mongo-grad" x1="0%" y1="0%" x2="0%" y2="100%">
      <stop offset="0%" style="stop-color:#1a3d1a"/>
      <stop offset="100%" style="stop-color:#0d2a0d"/>
    </linearGradient>
  </defs>

  <!-- ═══════════ BACKGROUND ═══════════ -->
  <rect width="1400" height="900" fill="url(#bg-grad)"/>

  <!-- Grid dots pattern -->
  <pattern id="grid-dots" x="0" y="0" width="30" height="30" patternUnits="userSpaceOnUse">
    <circle cx="15" cy="15" r="1" fill="#334155" opacity="0.4"/>
  </pattern>
  <rect width="1400" height="900" fill="url(#grid-dots)"/>

  <!-- ═══════════ TITLE ═══════════ -->
  <text x="700" y="50" text-anchor="middle" fill="#f1f5f9" font-size="26" font-weight="700" letter-spacing="2">Artha — Microservices Architecture</text>
  <line x1="300" y1="62" x2="1100" y2="62" stroke="#334155" stroke-width="1"/>

  <!-- ═══════════ MICROSERVICES CONTAINER ═══════════ -->
  <rect x="780" y="80" width="590" height="730" rx="12" fill="#0f2a1a" fill-opacity="0.5" stroke="#22c55e" stroke-width="2" stroke-dasharray="6,3" filter="url(#glow-green)"/>
  <rect x="820" y="78" width="160" height="28" rx="6" fill="#22c55e"/>
  <text x="900" y="97" text-anchor="middle" fill="#0a1a0a" font-size="12" font-weight="700" letter-spacing="1">MICROSERVICES</text>

  <!-- ═══════════ INFRASTRUCTURE CONTAINER ═══════════ -->
  <rect x="30" y="560" width="680" height="310" rx="10" fill="#1e1a2e" fill-opacity="0.4" stroke="#a855f7" stroke-width="1.5" stroke-dasharray="5,3"/>
  <rect x="60" y="558" width="170" height="24" rx="5" fill="#a855f7"/>
  <text x="145" y="575" text-anchor="middle" fill="#fff" font-size="11" font-weight="700" letter-spacing="1">INFRASTRUCTURE</text>

  <!-- ═══════════════════════════════════════════════════════
       LEFT SIDE: FRONTEND
  ═══════════════════════════════════════════════════════ -->
  <!-- Frontend box -->
  <rect x="40" y="145" width="150" height="130" rx="10" fill="#1e293b" stroke="#60a5fa" stroke-width="1.5" filter="url(#drop-shadow)"/>
  <!-- Monitor icon -->
  <rect x="75" y="162" width="80" height="55" rx="5" fill="none" stroke="#60a5fa" stroke-width="2"/>
  <rect x="95" y="217" width="40" height="5" rx="2" fill="#60a5fa"/>
  <rect x="88" y="222" width="54" height="4" rx="2" fill="#60a5fa" opacity="0.5"/>
  <!-- Screen content lines -->
  <line x1="83" y1="172" x2="147" y2="172" stroke="#60a5fa" stroke-width="1.5" opacity="0.6"/>
  <line x1="83" y1="179" x2="130" y2="179" stroke="#60a5fa" stroke-width="1" opacity="0.4"/>
  <line x1="83" y1="185" x2="140" y2="185" stroke="#60a5fa" stroke-width="1" opacity="0.4"/>
  <line x1="83" y1="191" x2="120" y2="191" stroke="#60a5fa" stroke-width="1" opacity="0.4"/>
  <!-- Label -->
  <text x="115" y="248" text-anchor="middle" fill="#f1f5f9" font-size="13" font-weight="600">Frontend</text>
  <text x="115" y="264" text-anchor="middle" fill="#94a3b8" font-size="10">React 18 / Vite</text>
  <text x="115" y="278" text-anchor="middle" fill="#60a5fa" font-size="10">:5173</text>

  <!-- ═══════════════════════════════════════════════════════
       CENTER-LEFT: API GATEWAY
  ═══════════════════════════════════════════════════════ -->
  <rect x="260" y="105" width="175" height="195" rx="10" fill="url(#gateway-grad)" stroke="#fb923c" stroke-width="2" filter="url(#drop-shadow)"/>
  <!-- AWS Gateway icon style -->
  <g transform="translate(330, 140)">
    <rect x="-30" y="-30" width="60" height="60" rx="5" fill="#fb923c" opacity="0.15"/>
    <line x1="-20" y1="0" x2="20" y2="0" stroke="#fb923c" stroke-width="3"/>
    <line x1="-20" y1="-10" x2="20" y2="-10" stroke="#fb923c" stroke-width="3"/>
    <line x1="-20" y1="10" x2="20" y2="10" stroke="#fb923c" stroke-width="3"/>
    <polygon points="-28,-5 -20,0 -28,5" fill="#fb923c"/>
    <polygon points="28,-5 20,0 28,5" fill="#fb923c"/>
  </g>
  <text x="348" y="195" text-anchor="middle" fill="#f1f5f9" font-size="13" font-weight="600">API Gateway</text>
  <text x="348" y="211" text-anchor="middle" fill="#94a3b8" font-size="10">Spring Cloud Gateway</text>
  <text x="348" y="225" text-anchor="middle" fill="#fb923c" font-size="10">:8080</text>
  <!-- Features -->
  <text x="265" y="250" fill="#94a3b8" font-size="9">▸ JWT Validation</text>
  <text x="265" y="264" fill="#94a3b8" font-size="9">▸ Redis Rate Limiting</text>
  <text x="265" y="278" fill="#94a3b8" font-size="9">▸ X-User-Id Injection</text>
  <text x="265" y="292" fill="#94a3b8" font-size="9">▸ Dynamic Routing</text>

  <!-- ═══════════════════════════════════════════════════════
       CENTER: SERVICE REGISTRY (Eureka)
  ═══════════════════════════════════════════════════════ -->
  <rect x="260" y="340" width="175" height="130" rx="10" fill="#1a1a3d" stroke="#818cf8" stroke-width="1.5" filter="url(#drop-shadow)"/>
  <!-- Circle icon for discovery -->
  <circle cx="348" cy="375" r="25" fill="none" stroke="#818cf8" stroke-width="2"/>
  <circle cx="348" cy="375" r="8" fill="#818cf8" opacity="0.5"/>
  <line x1="323" y1="375" x2="338" y2="375" stroke="#818cf8" stroke-width="1.5"/>
  <line x1="358" y1="375" x2="373" y2="375" stroke="#818cf8" stroke-width="1.5"/>
  <line x1="348" y1="350" x2="348" y2="365" stroke="#818cf8" stroke-width="1.5"/>
  <line x1="348" y1="385" x2="348" y2="400" stroke="#818cf8" stroke-width="1.5"/>
  <text x="348" y="418" text-anchor="middle" fill="#f1f5f9" font-size="13" font-weight="600">Service Registry</text>
  <text x="348" y="433" text-anchor="middle" fill="#94a3b8" font-size="10">Netflix Eureka</text>
  <text x="348" y="448" text-anchor="middle" fill="#818cf8" font-size="10">:8761</text>
  <text x="348" y="462" text-anchor="middle" fill="#64748b" font-size="9">Service Discovery</text>

  <!-- ═══════════════════════════════════════════════════════
       MICROSERVICES (right column)
  ═══════════════════════════════════════════════════════ -->

  <!-- ── User Service ── -->
  <rect x="800" y="100" width="165" height="110" rx="8" fill="url(#java-grad)" stroke="#60a5fa" stroke-width="1.5" filter="url(#drop-shadow)"/>
  <!-- Lock icon -->
  <rect x="851" y="115" width="30" height="22" rx="4" fill="none" stroke="#60a5fa" stroke-width="2"/>
  <path d="M856,115 Q856,108 866,108 Q876,108 876,115" fill="none" stroke="#60a5fa" stroke-width="2"/>
  <circle cx="866" cy="126" r="3" fill="#60a5fa"/>
  <line x1="866" y1="129" x2="866" y2="134" stroke="#60a5fa" stroke-width="1.5"/>
  <text x="883" y="130" text-anchor="middle" fill="#f1f5f9" font-size="11" font-weight="600">User Service</text>
  <text x="883" y="145" text-anchor="middle" fill="#94a3b8" font-size="9">Spring Boot / Java</text>
  <text x="883" y="158" text-anchor="middle" fill="#60a5fa" font-size="9">:8083</text>
  <text x="805" y="175" fill="#64748b" font-size="8">▸ Auth / JWT / OAuth2</text>
  <text x="805" y="188" fill="#64748b" font-size="8">▸ Companies &amp; Roles</text>
  <text x="805" y="200" fill="#64748b" font-size="8">▸ User Management</text>

  <!-- ── Budget Service ── -->
  <rect x="800" y="235" width="165" height="100" rx="8" fill="url(#java-grad)" stroke="#60a5fa" stroke-width="1.5" filter="url(#drop-shadow)"/>
  <!-- Budget icon - stacked bars -->
  <rect x="845" y="252" width="8" height="18" rx="2" fill="#60a5fa" opacity="0.8"/>
  <rect x="857" y="258" width="8" height="12" rx="2" fill="#60a5fa" opacity="0.6"/>
  <rect x="869" y="245" width="8" height="25" rx="2" fill="#60a5fa"/>
  <text x="883" y="285" text-anchor="middle" fill="#f1f5f9" font-size="11" font-weight="600">Budget Service</text>
  <text x="883" y="298" text-anchor="middle" fill="#94a3b8" font-size="9">Spring Boot / Java</text>
  <text x="883" y="311" text-anchor="middle" fill="#60a5fa" font-size="9">:8081</text>
  <text x="805" y="325" fill="#64748b" font-size="8">▸ Budget CRUD</text>
  <text x="805" y="336" fill="#64748b" font-size="8">▸ Category Allocations</text>

  <!-- ── Expense Service ── -->
  <rect x="800" y="365" width="165" height="100" rx="8" fill="url(#java-grad)" stroke="#60a5fa" stroke-width="1.5" filter="url(#drop-shadow)"/>
  <!-- Receipt icon -->
  <rect x="848" y="378" width="32" height="38" rx="3" fill="none" stroke="#60a5fa" stroke-width="2"/>
  <line x1="854" y1="388" x2="874" y2="388" stroke="#60a5fa" stroke-width="1.5"/>
  <line x1="854" y1="395" x2="874" y2="395" stroke="#60a5fa" stroke-width="1.5"/>
  <line x1="854" y1="402" x2="866" y2="402" stroke="#60a5fa" stroke-width="1.5"/>
  <text x="883" y="415" text-anchor="middle" fill="#f1f5f9" font-size="11" font-weight="600">Expense Service</text>
  <text x="883" y="428" text-anchor="middle" fill="#94a3b8" font-size="9">Spring Boot / Java</text>
  <text x="883" y="441" text-anchor="middle" fill="#60a5fa" font-size="9">:8082</text>
  <text x="805" y="455" fill="#64748b" font-size="8">▸ Expense Tracking</text>
  <text x="805" y="466" fill="#64748b" font-size="8">▸ Approval Workflow</text>

  <!-- ── Analysis Service ── -->
  <rect x="800" y="495" width="165" height="100" rx="8" fill="url(#python-grad)" stroke="#4ade80" stroke-width="1.5" filter="url(#drop-shadow)"/>
  <!-- Code/chart icon -->
  <text x="852" y="525" fill="#4ade80" font-size="22" font-weight="900">&lt;/&gt;</text>
  <text x="883" y="545" text-anchor="middle" fill="#f1f5f9" font-size="11" font-weight="600">Analysis Service</text>
  <text x="883" y="558" text-anchor="middle" fill="#94a3b8" font-size="9">Python / FastAPI</text>
  <text x="883" y="571" text-anchor="middle" fill="#4ade80" font-size="9">:8084</text>
  <text x="805" y="585" fill="#64748b" font-size="8">▸ Health Scores</text>
  <text x="805" y="596" fill="#64748b" font-size="8">▸ Spending Analytics</text>

  <!-- ── Notification Service ── -->
  <rect x="800" y="620" width="165" height="100" rx="8" fill="url(#node-grad)" stroke="#86efac" stroke-width="1.5" filter="url(#drop-shadow)"/>
  <!-- Bell icon -->
  <path d="M866,638 Q866,633 876,633 Q886,633 886,638 L888,655 Q893,660 893,665 L859,665 Q859,660 864,655 Z" fill="none" stroke="#86efac" stroke-width="2"/>
  <line x1="876" y1="665" x2="876" y2="670" stroke="#86efac" stroke-width="2"/>
  <line x1="873" y1="670" x2="879" y2="670" stroke="#86efac" stroke-width="2"/>
  <text x="883" y="690" text-anchor="middle" fill="#f1f5f9" font-size="11" font-weight="600">Notification Service</text>
  <text x="883" y="703" text-anchor="middle" fill="#94a3b8" font-size="9">Node.js / Express</text>
  <text x="883" y="716" text-anchor="middle" fill="#86efac" font-size="9">:8086</text>
  <text x="805" y="730" fill="#64748b" font-size="8">▸ Email Alerts</text>
  <text x="805" y="741" fill="#64748b" font-size="8">▸ Event Deduplication</text>

  <!-- ═══════════════════════════════════════════════════════
       DATABASES (rightmost column)
  ═══════════════════════════════════════════════════════ -->

  <!-- Helper macro: DB cylinder shape -->
  <!-- User DB -->
  <ellipse cx="1280" cy="145" rx="48" ry="13" fill="url(#db-pg-grad)" stroke="#60a5fa" stroke-width="1.5"/>
  <rect x="1232" y="145" width="96" height="40" fill="url(#db-pg-grad)" stroke="#60a5fa" stroke-width="1.5"/>
  <ellipse cx="1280" cy="185" rx="48" ry="13" fill="#1a2a4a" stroke="#60a5fa" stroke-width="1.5"/>
  <text x="1280" y="165" text-anchor="middle" fill="#60a5fa" font-size="10" font-weight="700">PostgreSQL</text>
  <text x="1280" y="200" text-anchor="middle" fill="#f1f5f9" font-size="11" font-weight="600">User DB</text>
  <text x="1280" y="215" text-anchor="middle" fill="#64748b" font-size="9">Neon Cloud</text>

  <!-- Budget DB -->
  <ellipse cx="1280" cy="270" rx="48" ry="13" fill="url(#db-pg-grad)" stroke="#60a5fa" stroke-width="1.5"/>
  <rect x="1232" y="270" width="96" height="40" fill="url(#db-pg-grad)" stroke="#60a5fa" stroke-width="1.5"/>
  <ellipse cx="1280" cy="310" rx="48" ry="13" fill="#1a2a4a" stroke="#60a5fa" stroke-width="1.5"/>
  <text x="1280" y="290" text-anchor="middle" fill="#60a5fa" font-size="10" font-weight="700">PostgreSQL</text>
  <text x="1280" y="325" text-anchor="middle" fill="#f1f5f9" font-size="11" font-weight="600">Budget DB</text>
  <text x="1280" y="340" text-anchor="middle" fill="#64748b" font-size="9">Neon Cloud</text>

  <!-- Expense DB -->
  <ellipse cx="1280" cy="395" rx="48" ry="13" fill="url(#db-pg-grad)" stroke="#60a5fa" stroke-width="1.5"/>
  <rect x="1232" y="395" width="96" height="40" fill="url(#db-pg-grad)" stroke="#60a5fa" stroke-width="1.5"/>
  <ellipse cx="1280" cy="435" rx="48" ry="13" fill="#1a2a4a" stroke="#60a5fa" stroke-width="1.5"/>
  <text x="1280" y="415" text-anchor="middle" fill="#60a5fa" font-size="10" font-weight="700">PostgreSQL</text>
  <text x="1280" y="450" text-anchor="middle" fill="#f1f5f9" font-size="11" font-weight="600">Expense DB</text>
  <text x="1280" y="465" text-anchor="middle" fill="#64748b" font-size="9">Neon Cloud</text>

  <!-- Analysis DB (MongoDB) -->
  <ellipse cx="1280" cy="520" rx="48" ry="13" fill="url(#db-mongo-grad)" stroke="#4ade80" stroke-width="1.5"/>
  <rect x="1232" y="520" width="96" height="40" fill="url(#db-mongo-grad)" stroke="#4ade80" stroke-width="1.5"/>
  <ellipse cx="1280" cy="560" rx="48" ry="13" fill="#0d2a0d" stroke="#4ade80" stroke-width="1.5"/>
  <text x="1280" y="540" text-anchor="middle" fill="#4ade80" font-size="10" font-weight="700">MongoDB</text>
  <text x="1280" y="576" text-anchor="middle" fill="#f1f5f9" font-size="11" font-weight="600">Analytics DB</text>
  <text x="1280" y="591" text-anchor="middle" fill="#64748b" font-size="9">MongoDB Atlas</text>

  <!-- Notification DB (MongoDB) -->
  <ellipse cx="1280" cy="643" rx="48" ry="13" fill="url(#db-mongo-grad)" stroke="#86efac" stroke-width="1.5"/>
  <rect x="1232" y="643" width="96" height="40" fill="url(#db-mongo-grad)" stroke="#86efac" stroke-width="1.5"/>
  <ellipse cx="1280" cy="683" rx="48" ry="13" fill="#0d2a0d" stroke="#86efac" stroke-width="1.5"/>
  <text x="1280" y="663" text-anchor="middle" fill="#86efac" font-size="10" font-weight="700">MongoDB</text>
  <text x="1280" y="698" text-anchor="middle" fill="#f1f5f9" font-size="11" font-weight="600">Notification DB</text>
  <text x="1280" y="713" text-anchor="middle" fill="#64748b" font-size="9">MongoDB Atlas</text>

  <!-- ═══════════════════════════════════════════════════════
       INFRASTRUCTURE SECTION (bottom left)
  ═══════════════════════════════════════════════════════ -->

  <!-- Redis -->
  <rect x="55" y="590" width="155" height="90" rx="8" fill="#1a0a2e" stroke="#c084fc" stroke-width="1.5" filter="url(#drop-shadow)"/>
  <!-- Redis icon -->
  <polygon points="132,600 152,610 132,620 112,610" fill="#c084fc" opacity="0.6"/>
  <polygon points="132,610 152,620 132,630 112,620" fill="#c084fc" opacity="0.4"/>
  <text x="133" y="655" text-anchor="middle" fill="#f1f5f9" font-size="12" font-weight="600">Redis</text>
  <text x="133" y="668" text-anchor="middle" fill="#94a3b8" font-size="9">Rate Limiting Cache</text>
  <text x="133" y="681" text-anchor="middle" fill="#c084fc" font-size="9">:6379</text>

  <!-- Kafka -->
  <rect x="240" y="590" width="220" height="90" rx="8" fill="url(#kafka-grad)" stroke="#a855f7" stroke-width="1.5" filter="url(#drop-shadow)"/>
  <!-- Kafka icon - abstract pipes -->
  <rect x="262" y="607" width="12" height="35" rx="3" fill="#a855f7" opacity="0.9"/>
  <rect x="280" y="600" width="12" height="50" rx="3" fill="#a855f7"/>
  <rect x="298" y="612" width="12" height="28" rx="3" fill="#a855f7" opacity="0.7"/>
  <rect x="316" y="604" width="12" height="44" rx="3" fill="#a855f7" opacity="0.8"/>
  <text x="370" y="625" text-anchor="middle" fill="#f1f5f9" font-size="12" font-weight="600">Apache Kafka</text>
  <text x="370" y="640" text-anchor="middle" fill="#94a3b8" font-size="9">Event Streaming</text>
  <text x="370" y="653" text-anchor="middle" fill="#a855f7" font-size="9">Topic: expense-events</text>
  <text x="370" y="666" text-anchor="middle" fill="#64748b" font-size="8">Zookeeper :2181 | Broker :9092</text>
  <text x="370" y="677" text-anchor="middle" fill="#64748b" font-size="8">Internal: kafka:29092</text>

  <!-- Zookeeper -->
  <rect x="490" y="590" width="185" height="90" rx="8" fill="#1a1a2e" stroke="#6366f1" stroke-width="1.5" filter="url(#drop-shadow)"/>
  <circle cx="545" cy="618" r="14" fill="none" stroke="#6366f1" stroke-width="2"/>
  <line x1="545" y1="610" x2="545" y2="618" stroke="#6366f1" stroke-width="2"/>
  <line x1="545" y1="618" x2="552" y2="624" stroke="#6366f1" stroke-width="2"/>
  <line x1="537" y1="622" x2="545" y2="618" stroke="#6366f1" stroke-width="2"/>
  <text x="583" y="625" text-anchor="middle" fill="#f1f5f9" font-size="12" font-weight="600">Zookeeper</text>
  <text x="583" y="638" text-anchor="middle" fill="#94a3b8" font-size="9">Kafka Coordination</text>
  <text x="583" y="651" text-anchor="middle" fill="#6366f1" font-size="9">:2181</text>

  <!-- Kafka + Zookeeper link -->
  <line x1="490" y1="635" x2="460" y2="635" stroke="#6366f1" stroke-width="1" stroke-dasharray="4,3" opacity="0.5"/>

  <!-- ── Docker Compose note ── -->
  <rect x="55" y="710" width="620" height="50" rx="6" fill="#0f172a" stroke="#334155" stroke-width="1"/>
  <text x="75" y="730" fill="#64748b" font-size="10" font-weight="600">🐳 Docker Compose</text>
  <text x="75" y="748" fill="#475569" font-size="9">All services containerized via multi-stage Dockerfiles (maven:3.9.9-eclipse-temurin-17 builder / eclipse-temurin:17-jre runtime for Java services)</text>

  <!-- ═══════════════════════════════════════════════════════
       ARROWS / CONNECTIONS
  ═══════════════════════════════════════════════════════ -->

  <!-- 1. Frontend → API Gateway (HTTP REST) -->
  <line x1="190" y1="205" x2="257" y2="205" stroke="#60a5fa" stroke-width="2" marker-end="url(#arrow-blue)"/>
  <rect x="192" y="190" width="68" height="16" rx="4" fill="#0f172a" opacity="0.8"/>
  <text x="226" y="201" text-anchor="middle" fill="#60a5fa" font-size="9" font-weight="500">HTTP REST Calls</text>

  <!-- 2. API Gateway ↕ Service Registry (Service Discovery) -->
  <line x1="348" y1="300" x2="348" y2="337" stroke="#818cf8" stroke-width="1.5" stroke-dasharray="5,3" marker-end="url(#arrow-white)"/>
  <line x1="338" y1="337" x2="338" y2="300" stroke="#818cf8" stroke-width="1.5" stroke-dasharray="5,3" marker-end="url(#arrow-white)"/>
  <rect x="270" y="316" width="72" height="14" rx="3" fill="#0f172a" opacity="0.85"/>
  <text x="306" y="326" text-anchor="middle" fill="#818cf8" font-size="8">Service Discovery</text>

  <!-- 3. API Gateway → Microservices (main routing arrow) -->
  <!-- Arrow: API Gateway right → User Service -->
  <line x1="435" y1="160" x2="797" y2="155" stroke="#cccccc" stroke-width="2" marker-end="url(#arrow-white)"/>
  <rect x="556" y="142" width="120" height="16" rx="4" fill="#0f172a" opacity="0.85"/>
  <text x="616" y="153" text-anchor="middle" fill="#cccccc" font-size="8.5" font-weight="500">"Service Communication /</text>
  <text x="616" y="163" text-anchor="middle" fill="#cccccc" font-size="8.5" font-weight="500">Load Balanced" (Eureka)</text>

  <!-- Arrow: API Gateway right → Budget Service -->
  <line x1="435" y1="195" x2="797" y2="285" stroke="#cccccc" stroke-width="1.5" marker-end="url(#arrow-white)" opacity="0.6"/>

  <!-- Arrow: API Gateway right → Expense Service -->
  <line x1="435" y1="210" x2="797" y2="415" stroke="#cccccc" stroke-width="1.5" marker-end="url(#arrow-white)" opacity="0.5"/>

  <!-- Arrow: API Gateway right → Analysis Service -->
  <line x1="435" y1="220" x2="797" y2="540" stroke="#cccccc" stroke-width="1.5" marker-end="url(#arrow-white)" opacity="0.4"/>

  <!-- 4. Service Registry ↔ Microservices (registration) -->
  <line x1="435" y1="405" x2="797" y2="285" stroke="#818cf8" stroke-width="1" stroke-dasharray="4,4" opacity="0.5" marker-end="url(#arrow-white)"/>

  <!-- 5. Services → DBs -->
  <!-- User → User DB -->
  <line x1="965" y1="155" x2="1230" y2="158" stroke="#60a5fa" stroke-width="1.5" marker-end="url(#arrow-blue)"/>
  <!-- Budget → Budget DB -->
  <line x1="965" y1="285" x2="1230" y2="285" stroke="#60a5fa" stroke-width="1.5" marker-end="url(#arrow-blue)"/>
  <!-- Expense → Expense DB -->
  <line x1="965" y1="415" x2="1230" y2="415" stroke="#60a5fa" stroke-width="1.5" marker-end="url(#arrow-blue)"/>
  <!-- Analysis → Analytics DB -->
  <line x1="965" y1="545" x2="1230" y2="545" stroke="#4ade80" stroke-width="1.5" marker-end="url(#arrow-green)"/>
  <!-- Notification → Notification DB -->
  <line x1="965" y1="670" x2="1230" y2="663" stroke="#86efac" stroke-width="1.5" marker-end="url(#arrow-green)"/>

  <!-- 6. Expense → Kafka (async publish) -->
  <path d="M 882,465 Q 882,520 580,570 Q 440,580 460,635" fill="none" stroke="#facc15" stroke-width="2" stroke-dasharray="6,3" marker-end="url(#arrow-yellow)"/>
  <rect x="620" y="520" width="130" height="28" rx="5" fill="#0f172a" opacity="0.9"/>
  <text x="685" y="531" text-anchor="middle" fill="#facc15" font-size="9" font-weight="600">Publishes to Kafka</text>
  <text x="685" y="543" text-anchor="middle" fill="#94a3b8" font-size="8">expense-events topic</text>

  <!-- 7. Kafka → Analysis Service (consume) -->
  <path d="M 460,610 Q 640,700 760,595 Q 795,570 800,550" fill="none" stroke="#4ade80" stroke-width="1.5" stroke-dasharray="5,4" marker-end="url(#arrow-green)"/>
  <rect x="590" y="672" width="110" height="16" rx="4" fill="#0f172a" opacity="0.85"/>
  <text x="645" y="683" text-anchor="middle" fill="#4ade80" font-size="8">Consumes (aiokafka)</text>

  <!-- 8. Kafka → Notification Service (consume) -->
  <path d="M 460,650 Q 620,720 760,700 Q 790,695 800,690" fill="none" stroke="#86efac" stroke-width="1.5" stroke-dasharray="5,4" marker-end="url(#arrow-green)"/>
  <rect x="580" y="727" width="120" height="16" rx="4" fill="#0f172a" opacity="0.85"/>
  <text x="640" y="738" text-anchor="middle" fill="#86efac" font-size="8">Consumes (kafkajs)</text>

  <!-- 9. Expense → Budget (REST: allocation lookup) -->
  <line x1="882" y1="365" x2="882" y2="335" stroke="#fb923c" stroke-width="1.2" stroke-dasharray="4,3" marker-end="url(#arrow-orange)" opacity="0.7"/>
  <rect x="888" y="343" width="88" height="14" rx="3" fill="#0f172a" opacity="0.85"/>
  <text x="932" y="353" text-anchor="middle" fill="#fb923c" font-size="8">REST: allocation lookup</text>

  <!-- 10. Expense → User Service (REST: role verify) -->
  <line x1="862" y1="365" x2="862" y2="210" stroke="#fb923c" stroke-width="1" stroke-dasharray="4,3" marker-end="url(#arrow-orange)" opacity="0.5"/>

  <!-- 11. Budget → User Service (REST: role verify) -->
  <line x1="845" y1="235" x2="845" y2="210" stroke="#fb923c" stroke-width="1" stroke-dasharray="4,3" marker-end="url(#arrow-orange)" opacity="0.5"/>

  <!-- 12. API Gateway → Redis (rate limiting) -->
  <path d="M 295,300 Q 260,380 200,580 Q 170,590 155,610" fill="none" stroke="#c084fc" stroke-width="1.5" stroke-dasharray="5,4" marker-end="url(#arrow-white)" opacity="0.7"/>
  <rect x="125" y="500" width="90" height="14" rx="3" fill="#0f172a" opacity="0.85"/>
  <text x="170" y="510" text-anchor="middle" fill="#c084fc" font-size="8">Rate Limiting</text>

  <!-- ═══════════════════════════════════════════════════════
       LEGEND
  ═══════════════════════════════════════════════════════ -->
  <rect x="30" y="795" width="740" height="90" rx="8" fill="#0f172a" stroke="#1e293b" stroke-width="1"/>
  <text x="50" y="815" fill="#94a3b8" font-size="11" font-weight="600">Legend</text>

  <!-- Sync REST -->
  <line x1="50" y1="835" x2="100" y2="835" stroke="#cccccc" stroke-width="2" marker-end="url(#arrow-white)"/>
  <text x="108" y="839" fill="#94a3b8" font-size="10">Synchronous REST</text>
  <!-- Async Kafka -->
  <line x1="230" y1="835" x2="280" y2="835" stroke="#facc15" stroke-width="2" stroke-dasharray="6,3" marker-end="url(#arrow-yellow)"/>
  <text x="288" y="839" fill="#94a3b8" font-size="10">Async Kafka Event</text>
  <!-- Service Discovery -->
  <line x1="420" y1="835" x2="470" y2="835" stroke="#818cf8" stroke-width="1.5" stroke-dasharray="5,3" marker-end="url(#arrow-white)"/>
  <text x="478" y="839" fill="#94a3b8" font-size="10">Service Discovery</text>
  <!-- Internal REST -->
  <line x1="600" y1="835" x2="650" y2="835" stroke="#fb923c" stroke-width="1.5" stroke-dasharray="4,3" marker-end="url(#arrow-orange)"/>
  <text x="658" y="839" fill="#94a3b8" font-size="10">Internal REST Call</text>

  <!-- DB labels -->
  <rect x="50" y="848" width="12" height="10" rx="2" fill="#1a2a4a" stroke="#60a5fa" stroke-width="1"/>
  <text x="68" y="858" fill="#94a3b8" font-size="10">PostgreSQL (Neon Cloud)</text>
  <rect x="230" y="848" width="12" height="10" rx="2" fill="#1a3d1a" stroke="#4ade80" stroke-width="1"/>
  <text x="248" y="858" fill="#94a3b8" font-size="10">MongoDB (Atlas)</text>
  <rect x="380" y="848" width="12" height="10" rx="2" fill="#1a0a2e" stroke="#c084fc" stroke-width="1"/>
  <text x="398" y="858" fill="#94a3b8" font-size="10">Redis (Rate Limiting)</text>
  <rect x="540" y="848" width="12" height="10" rx="2" fill="#2d1a3d" stroke="#a855f7" stroke-width="1"/>
  <text x="558" y="858" fill="#94a3b8" font-size="10">Kafka (Event Streaming)</text>

  <!-- ═══════════ LABELS: Service types ═══════════ -->
  <!-- Java badge -->
  <rect x="972" y="100" width="34" height="14" rx="4" fill="#1d4ed8"/>
  <text x="989" y="111" text-anchor="middle" fill="#fff" font-size="8" font-weight="700">Java</text>
  <rect x="972" y="235" width="34" height="14" rx="4" fill="#1d4ed8"/>
  <text x="989" y="246" text-anchor="middle" fill="#fff" font-size="8" font-weight="700">Java</text>
  <rect x="972" y="365" width="34" height="14" rx="4" fill="#1d4ed8"/>
  <text x="989" y="376" text-anchor="middle" fill="#fff" font-size="8" font-weight="700">Java</text>
  <!-- Python badge -->
  <rect x="972" y="495" width="46" height="14" rx="4" fill="#15803d"/>
  <text x="995" y="506" text-anchor="middle" fill="#fff" font-size="8" font-weight="700">Python</text>
  <!-- Node badge -->
  <rect x="972" y="620" width="42" height="14" rx="4" fill="#4d7c0f"/>
  <text x="993" y="631" text-anchor="middle" fill="#fff" font-size="8" font-weight="700">Node.js</text>
</svg>
