<svg xmlns="http://www.w3.org/2000/svg" viewBox="0 0 1700 730" width="1700" height="730"
     font-family="'Segoe UI',Arial,sans-serif">
  <defs>
    <marker id="arr-gray"   markerWidth="8" markerHeight="6" refX="7" refY="3" orient="auto"><polygon points="0 0,8 3,0 6" fill="#9ca3af"/></marker>
    <marker id="arr-blue"   markerWidth="8" markerHeight="6" refX="7" refY="3" orient="auto"><polygon points="0 0,8 3,0 6" fill="#60a5fa"/></marker>
    <marker id="arr-green"  markerWidth="8" markerHeight="6" refX="7" refY="3" orient="auto"><polygon points="0 0,8 3,0 6" fill="#4ade80"/></marker>
    <marker id="arr-orange" markerWidth="8" markerHeight="6" refX="7" refY="3" orient="auto"><polygon points="0 0,8 3,0 6" fill="#fb923c"/></marker>
    <marker id="arr-purple" markerWidth="8" markerHeight="6" refX="7" refY="3" orient="auto"><polygon points="0 0,8 3,0 6" fill="#a855f7"/></marker>
    <marker id="arr-indigo" markerWidth="8" markerHeight="6" refX="7" refY="3" orient="auto"><polygon points="0 0,8 3,0 6" fill="#818cf8"/></marker>
    <marker id="arr-teal"   markerWidth="8" markerHeight="6" refX="7" refY="3" orient="auto"><polygon points="0 0,8 3,0 6" fill="#00ed64"/></marker>
    <linearGradient id="bg-grad" x1="0%" y1="0%" x2="100%" y2="100%">
      <stop offset="0%"   style="stop-color:#0d1117"/>
      <stop offset="100%" style="stop-color:#161b22"/>
    </linearGradient>
    <filter id="sh" x="-8%" y="-8%" width="116%" height="116%">
      <feDropShadow dx="0" dy="2" stdDeviation="4" flood-color="#000" flood-opacity="0.55"/>
    </filter>
  </defs>

  <!-- Background -->
  <rect width="1700" height="730" fill="url(#bg-grad)"/>

  <!-- Title -->
  <text x="850" y="27" text-anchor="middle" fill="#f0f6fc" font-size="19" font-weight="700" letter-spacing="3">ARTHA — MICROSERVICES ARCHITECTURE</text>

  <!-- ═══ BROWSER ═══ -->
  <circle cx="485" cy="88" r="36" fill="#0d1117" stroke="#475569" stroke-width="1.5"/>
  <text x="485" y="83" text-anchor="middle" font-size="20">🌐</text>
  <text x="485" y="97"  text-anchor="middle" fill="#94a3b8" font-size="9" font-weight="600">User Browser</text>
  <text x="485" y="110" text-anchor="middle" fill="#475569" font-size="8">www.artha.systems</text>

  <!-- ═══ VERCEL ZONE  y=46 h=100 ═══ -->
  <text x="24" y="43" fill="#ffffff" font-size="12" font-weight="700">▲ Vercel</text>
  <rect x="15" y="46" width="390" height="100" rx="8"
        fill="#0d1117" fill-opacity="0.6" stroke="#ffffff" stroke-width="1.5" stroke-dasharray="8,4"/>
  <!-- Frontend card y=55 h=68 bottom=123 -->
  <rect x="25" y="55" width="370" height="68" rx="6"
        fill="#1a1a2e" stroke="#a78bfa" stroke-width="1.5" filter="url(#sh)"/>
  <text x="210" y="76"  text-anchor="middle" fill="#a78bfa" font-size="13" font-weight="700">artha-frontend</text>
  <text x="210" y="93"  text-anchor="middle" fill="#c4b5fd" font-size="10">React 19 + Vite · SPA · Recharts</text>
  <text x="210" y="109" text-anchor="middle" fill="#64748b" font-size="9">www.artha.systems</text>

  <!-- Arrow: Browser → Frontend -->
  <line x1="447" y1="88" x2="397" y2="88" stroke="#60a5fa" stroke-width="2" marker-end="url(#arr-blue)"/>
  <text x="422" y="81" text-anchor="middle" fill="#60a5fa" font-size="9">HTTPS</text>

  <!-- Arrow: Frontend → Nginx (bridge at y=142) -->
  <path d="M210,123 L210,142 L547,142 L547,170"
        fill="none" stroke="#60a5fa" stroke-width="2" stroke-dasharray="6,3" marker-end="url(#arr-blue)"/>
  <text x="370" y="137" text-anchor="middle" fill="#60a5fa" font-size="9">API calls</text>

  <!-- ═══ DIGITALOCEAN ZONE  y=156 h=438 bottom=594 ═══ -->
  <rect x="15" y="148" width="393" height="23" rx="4" fill="#1f6feb"/>
  <text x="24" y="164" fill="#ffffff" font-size="12" font-weight="700">🌊 DigitalOcean Droplet · 2 vCPU / 8 GB RAM</text>
  <rect x="15" y="156" width="1065" height="438" rx="10"
        fill="#161b22" fill-opacity="0.4" stroke="#1f6feb" stroke-width="2.5" stroke-dasharray="12,5"/>

  <!-- Nginx  y=170 h=42 bottom=212 -->
  <rect x="407" y="170" width="280" height="42" rx="7"
        fill="#0f2a3f" stroke="#38bdf8" stroke-width="1.5" filter="url(#sh)"/>
  <text x="547" y="191" text-anchor="middle" fill="#38bdf8" font-size="13" font-weight="700">Nginx</text>
  <text x="547" y="207" text-anchor="middle" fill="#94a3b8" font-size="10">Reverse Proxy · Ports 80/443 · SSL/TLS</text>

  <!-- Arrow: Nginx → API GW -->
  <line x1="547" y1="212" x2="547" y2="242" stroke="#9ca3af" stroke-width="2" marker-end="url(#arr-gray)"/>
  <text x="562" y="229" fill="#9ca3af" font-size="9">HTTP :8080</text>

  <!-- API Gateway  y=242 h=64 bottom=306 -->
  <rect x="317" y="242" width="460" height="64" rx="7"
        fill="#2d1500" stroke="#fb923c" stroke-width="2" filter="url(#sh)"/>
  <text x="547" y="263" text-anchor="middle" fill="#fb923c" font-size="13" font-weight="700">API Gateway</text>
  <text x="547" y="280" text-anchor="middle" fill="#94a3b8" font-size="10">Spring Cloud Gateway · :8080</text>
  <text x="547" y="296" text-anchor="middle" fill="#64748b" font-size="9">JWT Auth · Adaptive Rate Limiting (Redis) · CORS · Routing</text>

  <!-- Arrow: API GW → Service Registry -->
  <line x1="547" y1="306" x2="547" y2="337" stroke="#a855f7" stroke-width="1.5" stroke-dasharray="4,3" marker-end="url(#arr-purple)"/>
  <text x="562" y="323" fill="#a855f7" font-size="9">Eureka lookup</text>

  <!-- Service Registry  y=337 h=44 bottom=381 -->
  <rect x="422" y="337" width="250" height="44" rx="7"
        fill="#1a0030" stroke="#a855f7" stroke-width="1.5" filter="url(#sh)"/>
  <text x="547" y="358" text-anchor="middle" fill="#a855f7" font-size="13" font-weight="700">Service Registry</text>
  <text x="547" y="374" text-anchor="middle" fill="#94a3b8" font-size="10">Netflix Eureka · :8761</text>

  <!-- Routing bus  y=381-412 -->
  <line x1="547" y1="381" x2="547" y2="397" stroke="#a855f7" stroke-width="1" stroke-dasharray="3,3"/>
  <line x1="133" y1="397" x2="967" y2="397" stroke="#a855f7" stroke-width="1" stroke-dasharray="3,3"/>
  <line x1="133" y1="397" x2="133" y2="412" stroke="#9ca3af" stroke-width="1.5" marker-end="url(#arr-gray)"/>
  <line x1="340" y1="397" x2="340" y2="412" stroke="#9ca3af" stroke-width="1.5" marker-end="url(#arr-gray)"/>
  <line x1="547" y1="397" x2="547" y2="412" stroke="#9ca3af" stroke-width="1.5" marker-end="url(#arr-gray)"/>
  <line x1="754" y1="397" x2="754" y2="412" stroke="#9ca3af" stroke-width="1.5" marker-end="url(#arr-gray)"/>
  <line x1="967" y1="397" x2="967" y2="412" stroke="#9ca3af" stroke-width="1.5" marker-end="url(#arr-gray)"/>

  <!-- ── Service Cards  y=412 h=72 bottom=484 ── -->

  <!-- user-service -->
  <rect x="38" y="412" width="190" height="72" rx="7"
        fill="#0d1f3c" stroke="#1f6feb" stroke-width="1.5" filter="url(#sh)"/>
  <text x="133" y="432" text-anchor="middle" fill="#60a5fa" font-size="12" font-weight="700">user-service</text>
  <text x="133" y="449" text-anchor="middle" fill="#94a3b8" font-size="9">Spring Boot · :8083</text>
  <text x="133" y="466" text-anchor="middle" fill="#4ade80" font-size="9">📤 company-events</text>

  <!-- budget-service -->
  <rect x="245" y="412" width="190" height="72" rx="7"
        fill="#0d1f3c" stroke="#1f6feb" stroke-width="1.5" filter="url(#sh)"/>
  <text x="340" y="432" text-anchor="middle" fill="#60a5fa" font-size="12" font-weight="700">budget-service</text>
  <text x="340" y="449" text-anchor="middle" fill="#94a3b8" font-size="9">Spring Boot · :8081</text>
  <text x="340" y="466" text-anchor="middle" fill="#4ade80" font-size="9">📤 budget-events</text>

  <!-- expense-service -->
  <rect x="452" y="412" width="190" height="72" rx="7"
        fill="#0d1f3c" stroke="#1f6feb" stroke-width="1.5" filter="url(#sh)"/>
  <text x="547" y="432" text-anchor="middle" fill="#60a5fa" font-size="12" font-weight="700">expense-service</text>
  <text x="547" y="449" text-anchor="middle" fill="#94a3b8" font-size="9">Spring Boot · :8082</text>
  <text x="547" y="466" text-anchor="middle" fill="#4ade80" font-size="9">📤 expense-events</text>

  <!-- analysis-service -->
  <rect x="659" y="412" width="190" height="72" rx="7"
        fill="#0d2a1a" stroke="#22c55e" stroke-width="1.5" filter="url(#sh)"/>
  <text x="754" y="432" text-anchor="middle" fill="#4ade80" font-size="12" font-weight="700">analysis-service</text>
  <text x="754" y="449" text-anchor="middle" fill="#94a3b8" font-size="9">Python FastAPI · :8084</text>
  <text x="754" y="466" text-anchor="middle" fill="#4ade80" font-size="9">📥 expense + budget events</text>

  <!-- notification-service -->
  <rect x="866" y="412" width="200" height="72" rx="7"
        fill="#1a2a0d" stroke="#84cc16" stroke-width="1.5" filter="url(#sh)"/>
  <text x="966" y="432" text-anchor="middle" fill="#a3e635" font-size="12" font-weight="700">notification-service</text>
  <text x="966" y="449" text-anchor="middle" fill="#94a3b8" font-size="9">Node.js / KafkaJS · :8086</text>
  <text x="966" y="466" text-anchor="middle" fill="#4ade80" font-size="9">📥 expense + company events</text>

  <!-- ═══ AIVEN ZONE  y=156 h=222 bottom=378 ═══ -->
  <rect x="1095" y="148" width="158" height="23" rx="4" fill="#FF6B35"/>
  <text x="1104" y="164" fill="#ffffff" font-size="12" font-weight="700">⚡ Aiven</text>
  <rect x="1095" y="156" width="585" height="222" rx="10"
        fill="#161b22" fill-opacity="0.4" stroke="#FF6B35" stroke-width="2.5" stroke-dasharray="10,4"/>

  <!-- Kafka card  y=170 h=48 bottom=218 -->
  <rect x="1110" y="170" width="555" height="48" rx="7"
        fill="#1c0f00" stroke="#FF6B35" stroke-width="1.5" filter="url(#sh)"/>
  <text x="1387" y="192" text-anchor="middle" fill="#FF6B35" font-size="13" font-weight="700">Apache Kafka 7.8.0</text>
  <text x="1387" y="209" text-anchor="middle" fill="#94a3b8" font-size="10">Cloud Broker (Aiven) · SSL/TLS</text>

  <!-- Topics  y=228 h=44 -->
  <rect x="1110" y="228" width="174" height="44" rx="5" fill="#1f0a00" stroke="#fb923c" stroke-width="1"/>
  <text x="1197" y="248" text-anchor="middle" fill="#fb923c" font-size="10" font-weight="700">expense-events</text>
  <text x="1197" y="263" text-anchor="middle" fill="#64748b" font-size="9">→ analysis, notification</text>

  <rect x="1300" y="228" width="174" height="44" rx="5" fill="#1f0a00" stroke="#fb923c" stroke-width="1"/>
  <text x="1387" y="248" text-anchor="middle" fill="#fb923c" font-size="10" font-weight="700">budget-events</text>
  <text x="1387" y="263" text-anchor="middle" fill="#64748b" font-size="9">→ analysis</text>

  <rect x="1490" y="228" width="175" height="44" rx="5" fill="#1f0a00" stroke="#fb923c" stroke-width="1"/>
  <text x="1577" y="248" text-anchor="middle" fill="#fb923c" font-size="10" font-weight="700">company-events</text>
  <text x="1577" y="263" text-anchor="middle" fill="#64748b" font-size="9">→ notification</text>

  <!-- ═══ UPSTASH ZONE  y=386 h=92 bottom=478 ═══ -->
  <rect x="1095" y="378" width="160" height="23" rx="4" fill="#00C853"/>
  <text x="1104" y="394" fill="#ffffff" font-size="12" font-weight="700">⚡ Upstash</text>
  <rect x="1095" y="386" width="585" height="92" rx="10"
        fill="#161b22" fill-opacity="0.4" stroke="#00C853" stroke-width="2.5" stroke-dasharray="10,4"/>

  <!-- Redis card  y=398 h=70 bottom=468 -->
  <rect x="1110" y="398" width="555" height="70" rx="7"
        fill="#0d1f0d" stroke="#22c55e" stroke-width="1.5" filter="url(#sh)"/>
  <text x="1387" y="420" text-anchor="middle" fill="#22c55e" font-size="13" font-weight="700">Redis</text>
  <text x="1387" y="437" text-anchor="middle" fill="#94a3b8" font-size="10">Cloud (Upstash) · TLS</text>
  <text x="1387" y="454" text-anchor="middle" fill="#fb923c" font-size="9">Rate Limiting (API GW) · Response Caching (services)</text>

  <!-- MongoDB  y=490 h=58 bottom=548 -->
  <rect x="1095" y="490" width="280" height="58" rx="7"
        fill="#0d2a1a" stroke="#00ed64" stroke-width="1.5" filter="url(#sh)"/>
  <text x="1235" y="513" text-anchor="middle" fill="#00ed64" font-size="12" font-weight="700">MongoDB Atlas</text>
  <text x="1235" y="530" text-anchor="middle" fill="#94a3b8" font-size="10">Cloud NoSQL</text>
  <text x="1235" y="545" text-anchor="middle" fill="#64748b" font-size="9">analysis_db · notification_db</text>

  <!-- SendGrid  y=490 h=58 bottom=548 -->
  <rect x="1390" y="490" width="285" height="58" rx="7"
        fill="#1a0d2e" stroke="#a855f7" stroke-width="1.5" filter="url(#sh)"/>
  <text x="1532" y="513" text-anchor="middle" fill="#a855f7" font-size="12" font-weight="700">SendGrid</text>
  <text x="1532" y="530" text-anchor="middle" fill="#94a3b8" font-size="10">Transactional Email API</text>
  <text x="1532" y="545" text-anchor="middle" fill="#64748b" font-size="9">Budget alerts · Membership notifs</text>

  <!-- ═══ NEON POSTGRESQL  y=605 h=62 ═══ -->
  <text x="24" y="600" fill="#5294e2" font-size="11" font-weight="700">☁ Neon — Serverless PostgreSQL (Cloud)</text>
  <rect x="15" y="605" width="1065" height="62" rx="8"
        fill="#161b22" fill-opacity="0.5" stroke="#3b82f6" stroke-width="1.5" stroke-dasharray="8,4"/>

  <!-- user_db -->
  <rect x="30" y="612" width="315" height="46" rx="6" fill="#0d1a2e" stroke="#3b82f6" stroke-width="1"/>
  <text x="187" y="631" text-anchor="middle" fill="#60a5fa" font-size="11" font-weight="700">user_db</text>
  <text x="187" y="648" text-anchor="middle" fill="#64748b" font-size="9">Users · Companies · Auth</text>

  <!-- budget_db -->
  <rect x="365" y="612" width="315" height="46" rx="6" fill="#0d1a2e" stroke="#3b82f6" stroke-width="1"/>
  <text x="522" y="631" text-anchor="middle" fill="#60a5fa" font-size="11" font-weight="700">budget_db</text>
  <text x="522" y="648" text-anchor="middle" fill="#64748b" font-size="9">Budgets · Allocations</text>

  <!-- expense_db -->
  <rect x="700" y="612" width="365" height="46" rx="6" fill="#0d1a2e" stroke="#3b82f6" stroke-width="1"/>
  <text x="882" y="631" text-anchor="middle" fill="#60a5fa" font-size="11" font-weight="700">expense_db</text>
  <text x="882" y="648" text-anchor="middle" fill="#64748b" font-size="9">Expenses · Approvals</text>

  <!-- ═════════════════════════════════════════
       ARROWS
       ═════════════════════════════════════════ -->

  <!-- API GW → Redis  (API GW right x=777 mid-y=274 → corridor x=1091 → Redis mid y=433) -->
  <path d="M777,274 L1091,274 L1091,433 L1110,433"
        fill="none" stroke="#fb923c" stroke-width="2" stroke-dasharray="6,3"
        marker-end="url(#arr-orange)"/>
  <text x="934" y="265" text-anchor="middle" fill="#fb923c" font-size="9">rate limiting + cache</text>

  <!-- Kafka Publish bus (user/budget/expense → Kafka) -->
  <!-- Stubs: service bottoms y=484 → bus y=497 -->
  <line x1="133" y1="484" x2="133" y2="497" stroke="#4ade80" stroke-width="1" stroke-dasharray="3,3"/>
  <line x1="340" y1="484" x2="340" y2="497" stroke="#4ade80" stroke-width="1" stroke-dasharray="3,3"/>
  <line x1="547" y1="484" x2="547" y2="497" stroke="#4ade80" stroke-width="1" stroke-dasharray="3,3"/>
  <!-- Horizontal bus at y=497 -->
  <line x1="133" y1="497" x2="1080" y2="497" stroke="#4ade80" stroke-width="1.5" stroke-dasharray="4,3"/>
  <!-- Arm up into Kafka -->
  <path d="M1080,497 L1094,497 L1094,200 L1110,200"
        fill="none" stroke="#4ade80" stroke-width="2" marker-end="url(#arr-green)"/>
  <text x="1103" y="348" fill="#4ade80" font-size="8"
        transform="rotate(-90,1103,348)">📤 publish</text>

  <!-- Kafka → Analysis consume (dashed green, from Aiven left y=192 → down to analysis mid y=448) -->
  <path d="M1095,192 L1085,192 L1085,448 L849,448"
        fill="none" stroke="#4ade80" stroke-width="2" stroke-dasharray="6,3"
        marker-end="url(#arr-green)"/>

  <!-- Kafka → Notification consume (dashed green, from Aiven left y=210 → down to notif mid y=456) -->
  <path d="M1095,210 L1079,210 L1079,456 L1066,456"
        fill="none" stroke="#4ade80" stroke-width="2" stroke-dasharray="6,3"
        marker-end="url(#arr-green)"/>

  <!-- Consume label in corridor -->
  <text x="1088" y="325" fill="#4ade80" font-size="8"
        transform="rotate(-90,1088,325)">📥 consume</text>

  <!-- Services → Neon PostgreSQL -->
  <line x1="133" y1="484" x2="133" y2="605" stroke="#818cf8" stroke-width="1.5" marker-end="url(#arr-indigo)"/>
  <line x1="340" y1="484" x2="340" y2="605" stroke="#818cf8" stroke-width="1.5" marker-end="url(#arr-indigo)"/>
  <line x1="547" y1="484" x2="547" y2="605" stroke="#818cf8" stroke-width="1.5" marker-end="url(#arr-indigo)"/>

  <!-- Analysis → MongoDB (analysis right x=849 mid-y=448 → MongoDB mid y=519) -->
  <path d="M849,448 L1088,448 L1088,519 L1095,519"
        fill="none" stroke="#00ed64" stroke-width="1.5" marker-end="url(#arr-teal)"/>

  <!-- Notification → MongoDB -->
  <path d="M1066,456 L1090,456 L1090,533 L1095,533"
        fill="none" stroke="#00ed64" stroke-width="1.5" marker-end="url(#arr-teal)"/>

  <!-- Notification → SendGrid -->
  <path d="M1066,465 L1093,465 L1093,519 L1390,519"
        fill="none" stroke="#a855f7" stroke-width="1.5" marker-end="url(#arr-purple)"/>
  <text x="1228" y="511" text-anchor="middle" fill="#a855f7" font-size="8">email API</text>

  <!-- ═══ LEGEND  y=678 h=40 ═══ -->
  <rect x="15" y="678" width="1665" height="40" rx="6"
        fill="#161b22" fill-opacity="0.75" stroke="#334155" stroke-width="1"/>
  <text x="28" y="696" fill="#94a3b8" font-size="10" font-weight="600">Legend:</text>

  <line x1="88"  y1="694" x2="118"  y2="694" stroke="#60a5fa" stroke-width="2" marker-end="url(#arr-blue)"/>
  <text x="123" y="698" fill="#60a5fa" font-size="9">HTTP/HTTPS</text>

  <line x1="215" y1="694" x2="245"  y2="694" stroke="#4ade80" stroke-width="2" marker-end="url(#arr-green)"/>
  <text x="250" y="698" fill="#4ade80" font-size="9">Kafka publish</text>

  <line x1="358" y1="694" x2="388"  y2="694" stroke="#4ade80" stroke-width="2" stroke-dasharray="5,3" marker-end="url(#arr-green)"/>
  <text x="393" y="698" fill="#4ade80" font-size="9">Kafka consume</text>

  <line x1="506" y1="694" x2="536"  y2="694" stroke="#fb923c" stroke-width="2" stroke-dasharray="5,3" marker-end="url(#arr-orange)"/>
  <text x="541" y="698" fill="#fb923c" font-size="9">Redis</text>

  <line x1="600" y1="694" x2="630"  y2="694" stroke="#818cf8" stroke-width="2" marker-end="url(#arr-indigo)"/>
  <text x="635" y="698" fill="#818cf8" font-size="9">PostgreSQL</text>

  <line x1="728" y1="694" x2="758"  y2="694" stroke="#00ed64" stroke-width="2" marker-end="url(#arr-teal)"/>
  <text x="763" y="698" fill="#00ed64" font-size="9">MongoDB</text>

  <line x1="856" y1="694" x2="886"  y2="694" stroke="#a855f7" stroke-width="2" marker-end="url(#arr-purple)"/>
  <text x="891" y="698" fill="#a855f7" font-size="9">Email / Eureka</text>

  <line x1="988" y1="694" x2="1018" y2="694" stroke="#9ca3af" stroke-width="2" marker-end="url(#arr-gray)"/>
  <text x="1023" y="698" fill="#9ca3af" font-size="9">Internal HTTP</text>

  <text x="28" y="712" fill="#475569" font-size="8">* Dashed border = cloud-managed · All services register with Eureka on startup · artha-net Docker bridge network (DigitalOcean)</text>
</svg>
