<svg xmlns="http://www.w3.org/2000/svg" xmlns:xlink="http://www.w3.org/1999/xlink" width="500" zoomAndPan="magnify" viewBox="0 0 375 374.999991" height="500" preserveAspectRatio="xMidYMid meet" version="1.0"><rect x="-37.5" width="450" fill="#ffffff" y="-37.499999" height="449.999989" fill-opacity="1"/><rect x="-37.5" width="450" fill="#000000" y="-37.499999" height="449.999989" fill-opacity="1"/><path fill="#b4b4b4" d="M 270.992188 266.15625 L 222.402344 168.421875 C 208.09375 181.21875 195.503906 203.667969 196.207031 222.066406 L 210.910156 251.058594 C 211.4375 252.097656 212.335938 252.902344 213.433594 253.308594 L 265.21875 272.574219 C 269.164062 274.039062 272.867188 269.921875 270.992188 266.15625 Z M 183.792969 212.746094 C 183.667969 212.929688 183.554688 213.125 183.449219 213.332031 L 165.003906 250.71875 C 164.480469 251.78125 163.570312 252.605469 162.460938 253.019531 L 109.71875 272.636719 C 105.796875 274.097656 102.097656 270.03125 103.921875 266.265625 L 182.207031 104.394531 C 183.886719 100.921875 188.828125 100.890625 190.546875 104.347656 L 220.742188 165.082031 C 204.183594 176.917969 191.21875 193.457031 183.792969 212.746094 " fill-opacity="1" fill-rule="nonzero"/></svg>